# xmcd
#
# Track frame offsets:
#	150
#	22446
#	40860
#	58084
#	77020
#	98293
#	117407
#	133397
#	152031
#
# Disc length: 2201 seconds
#
# Revision: 10
# Processed by: cddbd v1.5.2PL0 Copyright (c) Steve Scherf et al.
# Submitted via: Jack! The Knife 20 Magnifico
#
DISCID=76089709
DTITLE=Children Of Bodom - Relentless Reckless Forever
DYEAR=2011
DGENRE=Metal
TTITLE0=Not My Funeral
TTITLE1=Shovel Knockout
TTITLE2=Roundtrip To Hell And Back
TTITLE3=Pussyfoot Miss Suicide
TTITLE4=Relentless Reckless Forever
TTITLE5=Ugly
TTITLE6=Cry Of The Nihilist
TTITLE7=Was It Worth It
TTITLE8=Northpole Throwdown
EXTD=Matt Hyde and Children of Bodom
EXTT0=Alexi Laiho
EXTT1=Alexi Laiho
EXTT2=Alexi Laiho
EXTT3=Alexi Laiho
EXTT4=Alexi Laiho
EXTT5=Alexi Laiho
EXTT6=Alexi Laiho
EXTT7=Alexi Laiho
EXTT8=Alexi Laiho
PLAYORDER=
